<svg xmlns="http://www.w3.org/2000/svg" viewBox="0 0 36 36" fill="none">
  <!-- Sun (provided path) -->
  <path d="M18.53 27.9489C14.9462 28.7919 11.3593 27.5714 9.01172 25.0631C10.617 25.5423 12.3651 25.6235 14.1138 25.2139C19.4467 23.9597 22.7537 18.6189 21.4996 13.2864C21.0884 11.5378 20.2364 10.01 19.0919 8.78589C22.3837 9.77013 25.0744 12.4361 25.9173 16.0214C27.1705 21.3549 23.864 26.6947 18.53 27.9489Z"
        stroke="currentColor"
        stroke-width="2.75"
        stroke-miterlimit="10"
        stroke-linecap="round"
        stroke-linejoin="round"/>

  <!-- Rays -->
  <path d="M18 3.5v4.25M18 28.25v4.25M3.5 18h4.25M28.25 18h4.25M7.1 7.1l3 3M25.9 25.9l3 3M28.9 7.1l-3 3M10.1 25.9l-3 3"
        stroke="currentColor"
        stroke-width="2.75"
        stroke-linecap="round"/>
</svg>


