<svg xmlns="http://www.w3.org/2000/svg" viewBox="0 0 24 24">
  <!-- Ticket icon (system-images style). Solid fill so it renders clean at small sizes. -->
  <path fill="#fff" d="M7 5h10a2 2 0 0 1 2 2v1.35a2.4 2.4 0 0 0 0 4.3V17a2 2 0 0 1-2 2H7a2 2 0 0 1-2-2v-1.35a2.4 2.4 0 0 0 0-4.3V7a2 2 0 0 1 2-2z"/>
  <!-- Perforation -->
  <path fill="#111" d="M12 7.6c.33 0 .6.27.6.6v.6c0 .33-.27.6-.6.6s-.6-.27-.6-.6v-.6c0-.33.27-.6.6-.6zm0 3.1c.33 0 .6.27.6.6v.6c0 .33-.27.6-.6.6s-.6-.27-.6-.6v-.6c0-.33.27-.6.6-.6zm0 3.1c.33 0 .6.27.6.6v.6c0 .33-.27.6-.6.6s-.6-.27-.6-.6v-.6c0-.33.27-.6.6-.6z"/>
  <!-- Star mark -->
  <path fill="#111" d="M16.3 9.1l.55 1.13 1.25.18-.9.88.22 1.24-1.12-.59-1.12.59.22-1.24-.9-.88 1.25-.18.55-1.13z"/>
</svg>

