<svg width="30" height="30" viewBox="0 0 30 30" fill="none" xmlns="http://www.w3.org/2000/svg">
  <circle cx="15" cy="15" r="10" stroke="white" stroke-width="2" fill="none"/>
  <circle cx="15" cy="15" r="3" fill="white"/>
  <path d="M21.5 15L22.5 13.5L24 13L22.5 12.5L21.5 11L20.5 12.5L19 13L20.5 13.5L21.5 15Z" fill="white"/>
  <path d="M10.5 15L9.5 13.5L8 13L9.5 12.5L10.5 11L11.5 12.5L13 13L11.5 13.5L10.5 15Z" fill="white"/>
  <path d="M15 21.5L13.5 22.5L13 24L12.5 22.5L11 21.5L12.5 20.5L13 19L13.5 20.5L15 21.5Z" fill="white"/>
  <path d="M15 10.5L13.5 9.5L13 8L12.5 9.5L11 10.5L12.5 11.5L13 13L13.5 11.5L15 10.5Z" fill="white"/>
</svg>
