<svg xmlns="http://www.w3.org/2000/svg" viewBox="0 0 24 24">
  <!-- Wide rounded rectangle, 4 centered semicircle bites (one per edge), centered star -->
  <path fill="#fff" fill-rule="evenodd" d="
    M6 7h12a2 2 0 0 1 2 2v6a2 2 0 0 1-2 2H6a2 2 0 0 1-2-2V9a2 2 0 0 1 2-2z

    M12 7
    m-1.6 0
    a1.6 1.6 0 1 0 3.2 0
    a1.6 1.6 0 1 0-3.2 0

    M12 17
    m-1.6 0
    a1.6 1.6 0 1 0 3.2 0
    a1.6 1.6 0 1 0-3.2 0

    M4 12
    m-1.6 0
    a1.6 1.6 0 1 0 3.2 0
    a1.6 1.6 0 1 0-3.2 0

    M20 12
    m-1.6 0
    a1.6 1.6 0 1 0 3.2 0
    a1.6 1.6 0 1 0-3.2 0

    M12 9.2
    l1.05 2.13
    l2.35 0.34
    l-1.70 1.66
    l0.40 2.34
    l-2.10-1.10
    l-2.10 1.10
    l0.40-2.34
    l-1.70-1.66
    l2.35-0.34
    z
  "/>
</svg>

