<svg width="35" height="35" viewBox="0 0 35 35" fill="none" xmlns="http://www.w3.org/2000/svg">
  <circle cx="17.5" cy="17.5" r="3.5" stroke="white" stroke-width="2" fill="none"/>
  <path d="M28.4 21.9a2.4 2.4 0 0 0 .48 2.65 2.9 2.9 0 1 1-4.12 4.12 2.4 2.4 0 0 0-2.65-.48 2.4 2.4 0 0 0-1.46 2.2 2.9 2.9 0 1 1-5.8 0 2.4 2.4 0 0 0-1.46-2.2 2.4 2.4 0 0 0-2.65.48 2.9 2.9 0 1 1-4.12-4.12 2.4 2.4 0 0 0 .48-2.65 2.4 2.4 0 0 0-2.2-1.46 2.9 2.9 0 1 1 0-5.8 2.4 2.4 0 0 0 2.2-1.46 2.4 2.4 0 0 0-.48-2.65 2.9 2.9 0 1 1 4.12-4.12 2.4 2.4 0 0 0 2.65.48 2.4 2.4 0 0 0 1.46-2.2 2.9 2.9 0 1 1 5.8 0 2.4 2.4 0 0 0 1.46 2.2 2.4 2.4 0 0 0 2.65-.48 2.9 2.9 0 1 1 4.12 4.12 2.4 2.4 0 0 0-.48 2.65 2.4 2.4 0 0 0 2.2 1.46 2.9 2.9 0 1 1 0 5.8 2.4 2.4 0 0 0-2.2 1.46z" stroke="white" stroke-width="2" fill="none"/>
</svg>
