<?xml version="1.0" encoding="UTF-8"?>
<svg version="1.1" xmlns="http://www.w3.org/2000/svg" width="248" height="426">
<path d="M0 0 C23.79545429 19.78923321 37.62705702 44.67605054 46.01391602 74.28930664 C46.32546631 75.36535156 46.32546631 75.36535156 46.64331055 76.46313477 C55.07760724 107.22077237 48.45545507 142.79778938 36.01391602 171.28930664 C35.66312988 172.10093262 35.31234375 172.91255859 34.95092773 173.7487793 C21.32698397 204.87228254 0.44355015 230.9892217 -22.98608398 255.28930664 C-23.75694336 256.10141602 -24.52780273 256.91352539 -25.32202148 257.75024414 C-30.48304549 263.07979138 -36.16743191 267.69802649 -41.98608398 272.28930664 C-42.52491211 272.71566406 -43.06374023 273.14202148 -43.61889648 273.58129883 C-60.99382164 287.28930664 -60.99382164 287.28930664 -64.98608398 287.28930664 C-62.55610625 292.26436631 -60.05382399 297.18771442 -57.39233398 302.04321289 C-56.93584473 302.88456787 -56.47935547 303.72592285 -56.0090332 304.59277344 C-55.08299022 306.29623323 -54.14721217 307.99443956 -53.20141602 309.68701172 C-52.77199707 310.48131592 -52.34257812 311.27562012 -51.90014648 312.09399414 C-51.50778809 312.80539551 -51.11542969 313.51679688 -50.71118164 314.24975586 C-49.83508727 316.71402938 -50.02531895 317.8831887 -50.98608398 320.28930664 C-54.16581862 322.64466563 -57.13733019 322.46424999 -60.98608398 322.28930664 C-60.50461914 323.74336914 -60.50461914 323.74336914 -60.01342773 325.22680664 C-56.36786206 338.09122971 -58.95384823 351.25569941 -63.98608398 363.28930664 C-64.43983398 364.38243164 -64.89358398 365.47555664 -65.36108398 366.60180664 C-66.20979169 368.62253928 -67.06117353 370.64215177 -67.91577148 372.66040039 C-70.30447659 378.52754834 -71.046159 383.12496009 -70.79858398 389.47680664 C-70.67179744 394.75513057 -70.67179744 394.75513057 -72.09155273 397.16821289 C-73.48608398 398.53930664 -73.48608398 398.53930664 -75.98608398 400.28930664 C-78.36108398 399.66430664 -78.36108398 399.66430664 -80.98608398 398.28930664 C-84.95418292 390.73102295 -83.22886079 381.52144243 -81.11108398 373.64086914 C-79.54594833 368.97806917 -77.58975969 364.52201306 -75.49951172 360.07202148 C-71.53697548 351.53115677 -70.70182371 344.12440902 -70.86108398 334.78930664 C-70.87010742 333.77610352 -70.87913086 332.76290039 -70.88842773 331.71899414 C-70.91179392 329.24217863 -70.9445523 326.76587285 -70.98608398 324.28930664 C-71.60467285 324.45011719 -72.22326172 324.61092773 -72.8605957 324.77661133 C-80.04705321 326.51007799 -87.25925817 325.11248224 -93.98608398 322.28930664 C-95.35136124 321.33337998 -96.69536594 320.34373763 -97.98608398 319.28930664 C-96.02861638 312.43817002 -93.14101732 306.38625462 -89.76733398 300.13891602 C-87.48416997 295.7828794 -86.40687767 292.19856629 -85.98608398 287.28930664 C-86.76209961 286.76723633 -87.53811523 286.24516602 -88.33764648 285.70727539 C-98.86965339 278.53093179 -109.62541854 271.19311356 -118.41577148 261.89477539 C-120.18146297 260.0895535 -122.05855039 258.48251472 -123.98608398 256.85180664 C-127.34119395 253.95304305 -130.23506997 250.87074213 -133.09545898 247.48852539 C-135.19936001 245.04121904 -137.40322663 242.70566747 -139.61108398 240.35180664 C-155.87907744 222.43735463 -169.85478608 201.75534144 -180.98608398 180.28930664 C-181.36603516 179.56598145 -181.74598633 178.84265625 -182.13745117 178.09741211 C-188.4671211 165.91031886 -192.83513748 153.64931981 -195.98608398 140.28930664 C-196.25291992 139.1871582 -196.25291992 139.1871582 -196.52514648 138.06274414 C-204.89814185 102.04557359 -197.00663178 63.55423359 -177.98608398 32.28930664 C-175.52276551 28.42527766 -172.88112172 24.83923622 -169.98608398 21.28930664 C-169.55602051 20.74999512 -169.12595703 20.21068359 -168.68286133 19.6550293 C-149.02727515 -4.88197898 -123.61558261 -19.45110205 -92.74389648 -25.32788086 C-58.79061511 -28.78673905 -26.76819889 -21.55835678 0 0 Z " fill="#000000" transform="translate(198.986083984375,25.710693359375)"/>
<path d="M0 0 C1.84851562 0.01643555 1.84851562 0.01643555 3.734375 0.03320312 C12.43457208 0.32100791 12.43457208 0.32100791 15.50952148 2.23632812 C18.42682899 5.49776697 19.75887511 9.54533682 20.9375 13.6875 C21.42669922 15.34652344 21.42669922 15.34652344 21.92578125 17.0390625 C22.625 20.0625 22.625 20.0625 22.625 24.0625 C23.72770642 24.05159379 23.72770642 24.05159379 24.85268974 24.04046726 C31.90553293 24.00104707 38.89001321 24.22567146 45.92626953 24.68920898 C46.98485168 24.75587769 48.04343384 24.82254639 49.13409424 24.89123535 C52.59224705 25.10999046 56.05002325 25.33417112 59.5078125 25.55859375 C61.93291463 25.7134206 64.358035 25.86796192 66.78317261 26.02223206 C71.84827816 26.34523365 76.91321229 26.67076631 81.97802734 26.99829102 C88.45136676 27.41682589 94.92500927 27.83042759 101.3987751 28.24230862 C106.40043532 28.56083687 111.40197184 28.88127249 116.40346909 29.20234871 C118.78992914 29.35545761 121.17641617 29.50814677 123.56293106 29.66039848 C126.9029143 29.87390855 130.2427343 30.08981381 133.58251953 30.30639648 C134.55629547 30.36825638 135.53007141 30.43011627 136.53335571 30.49385071 C139.23167303 30.67025466 141.9281177 30.86553761 144.625 31.0625 C145.5494479 31.11661608 146.4738958 31.17073215 147.42635727 31.22648811 C148.31778553 31.29109167 149.20921379 31.35569523 150.12765503 31.42225647 C150.92133421 31.47344163 151.71501339 31.52462679 152.53274345 31.57736301 C155.07426446 32.16667212 156.03610883 33.02354492 157.625 35.0625 C158.23651579 41.49932322 155.54174676 48.34865634 153.60546875 54.390625 C153.30562576 55.34265808 153.00578278 56.29469116 152.69685364 57.27557373 C152.06475389 59.27360303 151.42835031 61.27027541 150.7878418 63.265625 C149.81222981 66.31334406 148.85756412 69.36710351 147.90429688 72.421875 C147.28510716 74.37019032 146.66470596 76.31812113 146.04296875 78.265625 C145.76051804 79.17403137 145.47806732 80.08243774 145.1870575 81.01837158 C143.64921232 85.7497294 142.1843418 89.43087114 138.625 93.0625 C135.20587485 94.77206258 131.29301305 94.69767385 127.52539062 95.06225586 C126.58221481 95.15672501 125.639039 95.25119415 124.6672821 95.348526 C122.61524208 95.55369772 120.56302793 95.75713356 118.51066589 95.95905876 C115.26662866 96.2787848 112.02320679 96.60417068 108.77990723 96.93128967 C99.5570788 97.86075264 90.33346244 98.78213149 81.10888672 99.6940918 C75.47132988 100.25183572 69.83468706 100.81813552 64.1985321 101.38986397 C62.04580022 101.60647126 59.89272915 101.81973383 57.73933411 102.02964592 C54.73355617 102.32284465 51.72905479 102.62684033 48.72460938 102.93334961 C47.82792038 103.0180954 46.93123138 103.10284119 46.00737 103.19015503 C41.34103986 103.50745421 41.34103986 103.50745421 37.625 106.0625 C37.38287127 108.04378508 37.38287127 108.04378508 37.5 110.1875 C37.54125 111.46625 37.5825 112.745 37.625 114.0625 C39.35934296 114.07129936 39.35934296 114.07129936 41.12872314 114.08027649 C52.01756182 114.13745427 62.90619984 114.21018999 73.79483414 114.29821491 C79.39299332 114.34296947 84.99107886 114.38221444 90.58935547 114.40893555 C95.99057751 114.43491769 101.39151695 114.47528409 106.79256439 114.52568626 C108.85462686 114.54238943 110.91673825 114.55388217 112.97885895 114.56011391 C115.86413804 114.56971743 118.7486885 114.59773185 121.63378906 114.63012695 C122.48902664 114.62869186 123.34426422 114.62725677 124.22541809 114.6257782 C127.76317827 114.68206768 130.02290321 114.72803768 133.15594482 116.46842957 C134.9764744 118.44388456 135.1380363 119.40362207 135.0625 122.0625 C134.92444089 124.65229849 134.76615795 125.83664729 133.375 128.0625 C131.625 129.0625 131.625 129.0625 127.625 129.0625 C127.975625 129.701875 128.32625 130.34125 128.6875 131 C129.9831167 135.23234789 129.70301512 138.78921703 128.625 143.0625 C126.50482166 146.49865111 124.52877836 148.86967883 120.625 150.0625 C115.84832358 150.52475901 113.60596677 150.56223779 109.3125 148.375 C106.07111248 145.58589911 103.92861877 143.47699212 103.37890625 139.10546875 C103.2484937 134.97062388 103.74606534 132.82036932 105.625 129.0625 C88.465 129.3925 71.305 129.7225 53.625 130.0625 C54.615 132.5375 54.615 132.5375 55.625 135.0625 C55.86357679 139.26145142 55.05177326 142.38554931 52.8125 145.9375 C49.34157965 149.30925119 47.64232817 149.96404889 42.75 150.4375 C38.41914779 150.31652647 35.93487065 148.91052823 32.625 146.0625 C29.63221118 142.47115341 29.22408525 139.51949951 29.38671875 135 C29.69875003 132.46282763 30.48558159 130.34133683 31.625 128.0625 C30.4803125 127.69125 30.4803125 127.69125 29.3125 127.3125 C26.33892111 125.92944005 25.30376071 124.83245517 23.625 122.0625 C22.64728807 119.1293642 22.49080989 117.18071006 22.5 114.125 C22.49613281 112.84302734 22.49613281 112.84302734 22.4921875 111.53515625 C22.625 109.0625 22.625 109.0625 23.11572266 107.32550049 C25.68586886 95.90492154 22.74062925 84.06631546 20.125 72.953125 C19.76477658 71.36783265 19.40608211 69.78219219 19.04882812 68.19622803 C18.11583757 64.07117378 17.16434764 59.95062763 16.20800781 55.83093262 C14.85610859 49.99110163 13.53026451 44.14528659 12.20117188 38.30023193 C11.49545769 35.19700542 10.78280813 32.09550174 10.06445312 28.99517822 C9.74086789 27.58826087 9.41729926 26.18133969 9.09375 24.77441406 C8.80951172 23.5472467 8.52527344 22.32007935 8.23242188 21.0557251 C7.625 18.0625 7.625 18.0625 7.625 15.0625 C5.76294922 15.09730469 5.76294922 15.09730469 3.86328125 15.1328125 C2.2213602 15.15157731 0.57943262 15.16977675 -1.0625 15.1875 C-2.28743164 15.21263672 -2.28743164 15.21263672 -3.53710938 15.23828125 C-7.90987083 15.27368823 -11.44053011 15.22530801 -15.375 13.0625 C-17.36942942 10.52413528 -17.3862263 9.24586285 -17.1875 6 C-14.84931227 -2.45344794 -7.28765103 -0.26893099 0 0 Z " fill="#FDFDFD" transform="translate(50.375,81.9375)"/>
<path d="M0 0 C8.09857245 2.9015586 13.97095558 8.00155987 20 14 C20.62777344 14.59296875 21.25554687 15.1859375 21.90234375 15.796875 C29.30345163 23.38259102 35.57689594 35.33611109 36.25 45.9375 C36.20075922 49.71497158 35.39329254 51.98622421 33 55 C29.50434664 57.33043558 28.1134271 57.58763244 24 57 C20.38447283 53.21815858 18.37508908 48.92388511 16.1875 44.25 C13.09119393 37.87253377 9.79898998 32.27571084 5 27 C4.38511719 26.31679688 3.77023438 25.63359375 3.13671875 24.9296875 C-1.15558747 20.40513224 -5.78726317 16.86485013 -10.99609375 13.4453125 C-13 12 -13 12 -14 10 C-14.45679939 5.8888055 -14.64076643 3.82679539 -12.0625 0.5 C-7.68436048 -1.64439487 -4.63896779 -1.24838464 0 0 Z " fill="#FCFCFC" transform="translate(181,36)"/>
</svg>
