<?xml version="1.0" encoding="UTF-8"?>
<svg version="1.1" xmlns="http://www.w3.org/2000/svg" width="246" height="426">
<path d="M0 0 C27.44596031 24.56339536 44.74393388 57.39688111 47.63183594 94.46044922 C50.30862848 150.50746267 23.85147502 200.43371426 -12.64550781 241.42529297 C-23.34540118 253.17168882 -34.54344759 265.01165076 -47.36816406 274.46044922 C-47.93792969 274.88535645 -48.50769531 275.31026367 -49.09472656 275.74804688 C-50.96987998 277.14215283 -52.8537877 278.52318898 -54.74316406 279.89794922 C-55.32694824 280.32414551 -55.91073242 280.7503418 -56.51220703 281.18945312 C-59.68028972 283.44505486 -62.68480554 285.19817467 -66.36816406 286.46044922 C-64.09008603 291.2226626 -61.71163155 295.90608741 -59.06738281 300.47607422 C-58.66447021 301.17474609 -58.26155762 301.87341797 -57.84643555 302.59326172 C-57.04002599 303.98328034 -56.22595476 305.36888783 -55.40356445 306.74951172 C-53.13527086 310.66593419 -51.79635218 313.86456347 -51.36816406 318.46044922 C-55.20142023 321.1662771 -57.69354555 321.78658539 -62.36816406 321.46044922 C-61.88476562 323.18714844 -61.88476562 323.18714844 -61.39160156 324.94873047 C-57.37828592 341.10498962 -62.35887918 355.47617645 -69.00097656 370.17138672 C-71.93221991 377.2231207 -72.51308844 382.8256608 -72.14550781 390.37451172 C-72.39968313 393.89729241 -73.27051794 395.65345417 -75.36816406 398.46044922 C-77.30566406 399.46044922 -77.30566406 399.46044922 -79.36816406 399.46044922 C-82.44357888 397.70306932 -83.22798404 396.88098928 -84.36816406 393.46044922 C-85.38513132 379.69227715 -81.33916516 368.94602329 -76.14941406 356.45239258 C-75.80652344 355.62231689 -75.46363281 354.79224121 -75.11035156 353.93701172 C-74.64411377 352.82447021 -74.64411377 352.82447021 -74.16845703 351.68945312 C-72.6902791 347.57238036 -72.2437797 343.73509969 -72.27050781 339.37841797 C-72.27373047 338.44707031 -72.27695313 337.51572266 -72.28027344 336.55615234 C-72.28865234 335.59644531 -72.29703125 334.63673828 -72.30566406 333.64794922 C-72.31017578 332.66890625 -72.3146875 331.68986328 -72.31933594 330.68115234 C-72.33107723 328.27418811 -72.34749987 325.86735065 -72.36816406 323.46044922 C-73.35816406 323.79044922 -74.34816406 324.12044922 -75.36816406 324.46044922 C-82.26763109 325.11874699 -89.04787628 324.4320933 -95.36816406 321.46044922 C-97.65722656 319.35107422 -97.65722656 319.35107422 -99.36816406 317.46044922 C-98.6233159 315.74965964 -97.87819522 314.03898829 -97.13183594 312.32885742 C-96.49488871 310.86842374 -95.85948491 309.40731599 -95.22558594 307.94555664 C-92.99530958 302.82281995 -90.63303523 297.78292794 -88.11816406 292.79248047 C-87.1554934 289.79917638 -87.19785555 288.38855178 -88.36816406 285.46044922 C-90.85727928 283.29997355 -90.85727928 283.29997355 -94.05566406 281.39794922 C-106.38063971 273.29074882 -116.75162942 263.26277953 -127.18066406 252.89794922 C-127.91274078 252.173909 -127.91274078 252.173909 -128.65960693 251.4352417 C-135.35628161 244.7943703 -141.55031646 237.88851071 -147.36816406 230.46044922 C-147.91690186 229.76040771 -148.46563965 229.06036621 -149.03100586 228.33911133 C-168.50315267 203.16670978 -185.7144623 175.31886916 -194.36816406 144.46044922 C-194.57844238 143.73970215 -194.7887207 143.01895508 -195.00537109 142.27636719 C-200.90667071 121.27372128 -201.08114739 94.54571701 -195.36816406 73.46044922 C-195.19655762 72.81092285 -195.02495117 72.16139648 -194.84814453 71.4921875 C-189.56516486 51.88520396 -180.75351558 32.83070077 -167.36816406 17.46044922 C-166.66949219 16.64060547 -165.97082031 15.82076172 -165.25097656 14.97607422 C-145.65697507 -7.47683853 -118.76622278 -23.96670251 -88.53027344 -26.41064453 C-56.28574066 -28.3330828 -24.96079111 -21.74029787 0 0 Z " fill="#000000" transform="translate(198.3681640625,26.53955078125)"/>
<path d="M0 0 C1.0809494 -0.0071553 2.1618988 -0.01431061 3.27560425 -0.02168274 C4.46680374 -0.02437164 5.65800323 -0.02706055 6.88529968 -0.02983093 C8.76100647 -0.03968773 8.76100647 -0.03968773 10.67460632 -0.04974365 C14.11067686 -0.06610007 17.54668577 -0.07770622 20.98278069 -0.08594918 C23.12930242 -0.09109877 25.27581982 -0.09717452 27.42233849 -0.10346031 C34.13765111 -0.12251337 40.85295273 -0.13674418 47.56828719 -0.14507228 C55.32122539 -0.15484577 63.07387816 -0.18116741 70.82671577 -0.22157317 C76.81829456 -0.25172861 82.8097915 -0.2665406 88.80144471 -0.26985329 C92.38042653 -0.27220448 95.95910347 -0.28117319 99.53800392 -0.30631447 C103.53155625 -0.33391515 107.52447057 -0.3297659 111.51811218 -0.32279968 C112.70323898 -0.33560974 113.88836578 -0.3484198 115.10940552 -0.36161804 C123.12402826 -0.31053339 123.12402826 -0.31053339 127.10690308 2.05154419 C130.47868153 6.00146342 130.05660066 9.57730728 130.07279968 14.55659485 C130.07937088 15.42667679 130.08594208 16.29675873 130.0927124 17.19320679 C130.11246592 20.0802061 130.12411236 22.96715336 130.13407898 25.85420227 C130.13815451 26.83905798 130.14223003 27.82391369 130.14642906 28.83861351 C130.16729823 34.05092027 130.18159647 39.26320064 130.19096375 44.47554016 C130.20203196 49.86271626 130.23643429 55.24947974 130.27613544 60.6365099 C130.30226473 64.77577489 130.31065229 68.91494101 130.31424522 73.05428123 C130.31912047 75.04022192 130.33076103 77.02615791 130.34928322 79.0120182 C130.37359694 81.7915338 130.37272392 84.56997451 130.36576843 87.3495636 C130.38498352 88.5802356 130.38498352 88.5802356 130.40458679 89.83576965 C130.36836415 93.80688985 130.18095367 95.69985284 127.99142456 99.13452148 C124.84189898 102.15934017 123.09867667 102.27564911 118.83628845 102.30107117 C117.22965332 102.31397186 117.22965332 102.31397186 115.59056091 102.32713318 C114.4102832 102.33139313 113.23000549 102.33565308 112.01396179 102.34004211 C110.77485046 102.3482196 109.53573914 102.35639709 108.25907898 102.36482239 C104.14319687 102.38971107 100.02735156 102.4063517 95.91142273 102.42060852 C94.49440759 102.42596832 93.07739251 102.43134583 91.6603775 102.43674088 C85.76526903 102.45837136 79.8701633 102.47710739 73.97502518 102.48836327 C65.52799529 102.50459771 57.08142575 102.53776055 48.63456941 102.59476411 C42.69478165 102.63348086 36.75511691 102.65299805 30.81520629 102.65828383 C27.2679702 102.6619354 23.72122507 102.67393438 20.17412567 102.70638657 C16.21435079 102.74209436 12.25515214 102.73809184 8.29521179 102.73066711 C7.12303101 102.74707245 5.95085022 102.76347778 4.7431488 102.78038025 C-4.11982745 102.71226441 -4.11982745 102.71226441 -7.81666565 99.73570251 C-11.5320437 95.53145371 -11.26320753 92.33338653 -11.28120422 86.93721008 C-11.28777542 86.08824158 -11.29434662 85.23927307 -11.30111694 84.36457825 C-11.32087138 81.54731666 -11.33251793 78.73010845 -11.34248352 75.91279602 C-11.34655905 74.95125359 -11.35063457 73.98971115 -11.3548336 72.99903107 C-11.37570451 67.90876479 -11.39000123 62.81852554 -11.39936829 57.72822571 C-11.4104287 52.47117954 -11.4448215 47.21455711 -11.48453999 41.95766068 C-11.51069257 37.91529048 -11.51905897 33.87302139 -11.52264977 29.83057404 C-11.52752004 27.89290763 -11.53914655 25.95524587 -11.55768776 24.01766205 C-11.58204799 21.30300406 -11.58111983 18.58944402 -11.57417297 15.87471008 C-11.58698303 15.07655884 -11.59979309 14.27840759 -11.61299133 13.45606995 C-11.56449173 8.24695249 -10.54814533 5.28364407 -7.10420227 1.14717102 C-4.57850728 -0.11567647 -2.82804912 0.01281678 0 0 Z " fill="#FEFEFE" transform="translate(60.10420227050781,70.85282897949219)"/>
<path d="M0 0 C12.53673042 3.1341826 24.24355396 13.19264321 31 24 C40.29682372 41.20804116 40.29682372 41.20804116 39 51 C37.5474466 54.32876822 36.55651773 56.37484124 33.09375 57.765625 C29.24905959 58.54030143 29.24905959 58.54030143 27 58 C23.57370271 54.54150067 21.9770977 50.87561341 20.25 46.375 C14.67765349 32.6421772 5.3157806 23.09618252 -6.64453125 14.69921875 C-9 13 -9 13 -11 11 C-11.42834085 7.14493238 -11.55897202 4.87199635 -9.4375 1.5625 C-5.96413892 -0.66401351 -4.09762913 -0.52872634 0 0 Z " fill="#FBFCFB" transform="translate(176,35)"/>
<path d="M0 0 C6.27 0 12.54 0 19 0 C19.11309629 7.47583899 19.20476939 14.95120826 19.25906086 22.42772198 C19.28512227 25.89964849 19.32045387 29.37095792 19.37719727 32.8425293 C19.44206834 36.83648499 19.46620862 40.82979558 19.48828125 44.82421875 C19.51408768 46.06709152 19.5398941 47.30996429 19.56648254 48.59049988 C19.5696068 58.1937583 19.5696068 58.1937583 16.61206055 61.27978516 C13.96608664 63.02233419 12.63481906 63.70405714 9.5 63.6875 C8.7678125 63.71199219 8.035625 63.73648438 7.28125 63.76171875 C3.63329371 62.54365115 1.68681958 60.34498393 0 57 C-0.69482509 52.64406683 -0.58169849 48.34654963 -0.48828125 43.9453125 C-0.48120651 42.68862762 -0.47413177 41.43194275 -0.46684265 40.13717651 C-0.44364871 36.81236696 -0.39881317 33.48930376 -0.34332275 30.16497803 C-0.29197225 26.76638807 -0.26929523 23.36761693 -0.24414062 19.96875 C-0.18908064 13.31195871 -0.10280729 6.65621819 0 0 Z " fill="#FCFCFC" transform="translate(111,183)"/>
<path d="M0 0 C2.75329021 1.79562405 4.52627461 3.05254922 6 6 C6 8.97 6 11.94 6 15 C-0.27 15 -6.54 15 -13 15 C-13 6 -13 6 -11.125 3 C-7.4943374 -0.41709421 -4.9378642 -0.41846307 0 0 Z " fill="#FBFBFB" transform="translate(124,48)"/>
</svg>
