<?xml version="1.0" encoding="UTF-8"?>
<svg version="1.1" xmlns="http://www.w3.org/2000/svg" width="244" height="422">
<path d="M0 0 C12.58393828 9.88738008 23.44022754 21.44926826 32.0546875 34.91796875 C32.75078125 35.99175781 33.446875 37.06554688 34.1640625 38.171875 C54.0894382 70.8788386 57.43406949 110.60127615 49.05859375 147.41796875 C43.0525336 171.91580549 30.69302441 195.50190046 16.0546875 215.91796875 C15.57741211 216.5845752 15.10013672 217.25118164 14.60839844 217.93798828 C8.88546134 225.86994181 2.96067549 233.42002257 -3.734375 240.55859375 C-5.60137237 242.55093723 -7.37520836 244.58025621 -9.1328125 246.66796875 C-23.31243051 262.9259232 -40.16553049 278.13566045 -58.9453125 288.91796875 C-57.9045993 292.87267892 -56.32289641 296.08982208 -54.1953125 299.54296875 C-51.84399222 303.38055568 -49.6085894 307.24927616 -47.5078125 311.23046875 C-46.73630859 312.67873047 -46.73630859 312.67873047 -45.94921875 314.15625 C-44.81024443 317.28953734 -44.82488821 318.80264266 -45.9453125 321.91796875 C-49.28688497 323.86721936 -52.12646696 324.13618849 -55.9453125 323.91796875 C-55.62175781 324.90410156 -55.29820312 325.89023437 -54.96484375 326.90625 C-50.77252039 341.66278343 -55.15175754 356.75539722 -61.43188477 370.13696289 C-65.22009241 378.29482401 -66.15863526 384.95708054 -65.625 393.96484375 C-65.9453125 396.91796875 -65.9453125 396.91796875 -67.79296875 399.296875 C-69.9453125 400.91796875 -69.9453125 400.91796875 -72.5078125 401.10546875 C-75.48819301 399.6534885 -76.35237939 398.07368611 -77.4375 394.98046875 C-80.47123417 382.65884074 -74.43165545 369.25514749 -69.3125 358.234375 C-66.17558834 350.62512358 -65.67441828 344.05437727 -65.8203125 335.91796875 C-65.82933594 334.95246094 -65.83835937 333.98695313 -65.84765625 332.9921875 C-65.87100615 330.63384776 -65.90375203 328.27604589 -65.9453125 325.91796875 C-66.98429687 325.964375 -68.02328125 326.01078125 -69.09375 326.05859375 C-85.6082848 326.57374421 -85.6082848 326.57374421 -91.9453125 321.91796875 C-93.17667492 319.16305622 -92.98210406 318.02307692 -91.97314453 315.140625 C-91.47153809 314.09777344 -90.96993164 313.05492187 -90.453125 311.98046875 C-89.91300781 310.83835937 -89.37289062 309.69625 -88.81640625 308.51953125 C-88.23497734 307.31871858 -87.6529398 306.11820042 -87.0703125 304.91796875 C-85.94496897 302.56520972 -84.82244775 300.21109811 -83.703125 297.85546875 C-83.1992627 296.81261719 -82.69540039 295.76976562 -82.17626953 294.6953125 C-81.16169277 292.4061762 -80.43673416 290.36116197 -79.9453125 287.91796875 C-80.61433594 287.70011719 -81.28335938 287.48226563 -81.97265625 287.2578125 C-85.89862091 285.48829098 -89.09059297 283.07891137 -92.5078125 280.48046875 C-93.21164063 279.9491333 -93.91546875 279.41779785 -94.640625 278.87036133 C-100.15473079 274.64909318 -105.28710768 270.14118087 -110.3359375 265.37890625 C-112.57700609 263.2653236 -114.85644167 261.23392012 -117.1953125 259.23046875 C-124.00420308 253.30969434 -130.13986459 246.81466627 -135.9453125 239.91796875 C-136.37908203 239.41394531 -136.81285156 238.90992188 -137.25976562 238.390625 C-160.06163807 211.81401459 -179.79488736 180.30454923 -187.9453125 145.91796875 C-188.10902344 145.22928711 -188.27273437 144.54060547 -188.44140625 143.83105469 C-196.51451215 107.81899757 -190.29999118 67.63475535 -170.75 36.27734375 C-151.45982334 7.65321064 -125.35522075 -12.48328722 -91.23876953 -19.65063477 C-59.17129237 -25.60662924 -26.59661057 -18.8010523 0 0 Z " fill="#010101" transform="translate(190.9453125,21.08203125)"/>
<path d="M0 0 C1.16080078 0.49105225 2.32160156 0.98210449 3.51757812 1.48803711 C4.78651963 2.03485126 6.05539785 2.58181229 7.32421875 3.12890625 C8.66441294 3.69935582 10.00491667 4.26907865 11.34570312 4.83813477 C15.07959375 6.42594252 18.80852165 8.02509645 22.53619385 9.62744141 C25.13346998 10.74373415 27.73144543 11.85838598 30.32958984 12.97265625 C31.23750778 13.36206894 32.14542572 13.75148163 33.08085632 14.1526947 C34.94248601 14.95108361 36.80414999 15.74939259 38.66584778 16.54762268 C43.2221025 18.50158035 47.7771553 20.45822133 52.3293457 22.42163086 C54.03586006 23.15634276 55.74248216 23.89080448 57.44921875 24.625 C58.67568367 25.15346779 58.67568367 25.15346779 59.92692566 25.69261169 C63.76047823 27.33542471 67.60171005 28.94002648 71.48828125 30.45361328 C72.18123291 30.72375748 72.87418457 30.99390167 73.58813477 31.27223206 C75.43572535 31.98558996 77.28800279 32.6867762 79.140625 33.38696289 C81.7631812 34.57848651 83.28866409 35.41500359 85.01171875 37.69140625 C85.07421875 39.62890625 85.07421875 39.62890625 84.01171875 41.69140625 C78.34517356 46.11503047 71.70067827 48.68397057 65.13671875 51.50390625 C63.99074219 52.01888672 62.84476563 52.53386719 61.6640625 53.06445312 C60.54386719 53.54591797 59.42367187 54.02738281 58.26953125 54.5234375 C57.26035645 54.96405518 56.25118164 55.40467285 55.21142578 55.85864258 C48.37360486 57.63827078 42.51642632 55.40759453 36.28515625 52.70703125 C35.57501373 52.40955994 34.86487122 52.11208862 34.13320923 51.80560303 C31.88030442 50.86020609 29.63331999 49.90167445 27.38671875 48.94140625 C6.91174847 38.89409949 6.91174847 38.89409949 -14.98828125 36.69140625 C-15.97828125 37.35140625 -16.96828125 38.01140625 -17.98828125 38.69140625 C-17.79119792 40.64045773 -17.79119792 40.64045773 -16.98828125 42.69140625 C-15.23940928 43.91793103 -15.23940928 43.91793103 -13.015625 44.70703125 C-12.1994873 45.03767578 -11.38334961 45.36832031 -10.54248047 45.70898438 C-9.69959473 46.03318359 -8.85670898 46.35738281 -7.98828125 46.69140625 C-7.2214502 47.00013672 -6.45461914 47.30886719 -5.66455078 47.62695312 C-3.2983787 48.57845102 -0.92516559 49.51060968 1.44921875 50.44140625 C11.09464444 54.25581656 20.56879783 58.40331656 30.01171875 62.69140625 C30.01171875 63.68140625 30.01171875 64.67140625 30.01171875 65.69140625 C26.04655391 67.46975521 22.08129946 69.24790418 18.1159668 71.02587891 C16.77089089 71.62901589 15.42583823 72.23220471 14.08081055 72.83544922 C13.43088135 73.12693848 12.78095215 73.41842773 12.11132812 73.71875 C11.46819672 74.00754028 10.82506531 74.29633057 10.16244507 74.59387207 C8.87887197 75.16850259 7.59405906 75.74037179 6.30801392 76.30944824 C3.6312847 77.49638765 0.98461282 78.70529848 -1.62158203 80.04101562 C-7.10864972 82.81378043 -11.03727569 83.45712569 -16.98828125 81.69140625 C-21.43449262 79.95610786 -25.74491477 77.99655469 -30.0546875 75.94885254 C-33.71176164 74.2118686 -37.38892427 72.51813143 -41.0625 70.81640625 C-41.81026703 70.46846008 -42.55803406 70.12051392 -43.32846069 69.76202393 C-50.65946139 66.35769661 -58.06220539 63.13171039 -65.48828125 59.94140625 C-66.71745238 59.41157607 -67.94653822 58.88154797 -69.17553711 58.35131836 C-71.5835695 57.31289173 -73.99185009 56.27504046 -76.40039062 55.23779297 C-82.35197587 52.67265001 -88.29803727 50.09523007 -94.23828125 47.50390625 C-95.29853516 47.0459668 -96.35878906 46.58802734 -97.45117188 46.11621094 C-98.41732422 45.6937207 -99.38347656 45.27123047 -100.37890625 44.8359375 C-101.22485352 44.46831299 -102.07080078 44.10068848 -102.94238281 43.72192383 C-104.98828125 42.69140625 -104.98828125 42.69140625 -106.98828125 40.69140625 C-106.99365234 38.2668457 -106.99365234 38.2668457 -105.98828125 35.69140625 C-103.43994141 34.01245117 -103.43994141 34.01245117 -99.90234375 32.484375 C-99.2448111 32.19564011 -98.58727844 31.90690521 -97.90982056 31.60942078 C-95.61240248 30.61199644 -93.30236674 29.64950254 -90.98828125 28.69140625 C-90.12505249 28.33032776 -89.26182373 27.96924927 -88.37243652 27.597229 C-81.38962521 24.68257381 -74.37895754 21.83833999 -67.36328125 19.00390625 C-62.99803837 17.23730179 -58.63351494 15.46893138 -54.26953125 13.69921875 C-53.20540009 13.26802231 -52.14126892 12.83682587 -51.04489136 12.39256287 C-44.86445268 9.88164538 -38.7101397 7.31950257 -32.58203125 4.68359375 C-31.23652625 4.10888531 -29.89098753 3.53425579 -28.54541016 2.9597168 C-26.16407309 1.94196773 -23.79482038 0.90495419 -21.42724609 -0.14526367 C-20.39293457 -0.58717041 -19.35862305 -1.02907715 -18.29296875 -1.484375 C-16.99335205 -2.0553894 -16.99335205 -2.0553894 -15.66748047 -2.63793945 C-10.09115719 -4.03379876 -5.12875154 -2.19032209 0 0 Z " fill="#FDFDFD" transform="translate(131.98828125,86.30859375)"/>
<path d="M0 0 C2.26988273 0.98132171 4.53923659 1.96384558 6.80810547 2.94750977 C8.836521 3.82688542 10.86550693 4.70494636 12.89501953 5.58178711 C18.69820858 8.09779059 24.47412751 10.66207428 30.22265625 13.30078125 C31.41463623 13.84379883 32.60661621 14.38681641 33.8347168 14.94628906 C36.15215625 16.00424708 38.4650478 17.07223853 40.77270508 18.15136719 C51.20425837 23.03774442 51.20425837 23.03774442 62.26416016 21.95532227 C66.11454754 20.42006078 69.86626582 18.74371815 73.625 17 C74.96891745 16.39509046 76.31364867 15.79198568 77.65917969 15.19067383 C81.45251161 13.48798507 85.22791204 11.74925976 89 10 C89.93102539 9.56864746 90.86205078 9.13729492 91.82128906 8.69287109 C95.08497951 7.17498339 98.3391008 5.64430912 101.578125 4.07421875 C104 3 104 3 106 3 C106.1455841 7.54132797 106.23417333 12.08205341 106.3125 16.625 C106.35439453 17.91019531 106.39628906 19.19539063 106.43945312 20.51953125 C106.57761511 31.18563662 106.57761511 31.18563662 103.75 34.73828125 C86.36500004 49.03645593 61.23185556 49.06516316 40 48 C25.50024428 46.50586795 8.40894728 40.40894728 -2 30 C-2.10216127 27.53010103 -2.14094894 25.09484763 -2.125 22.625 C-2.12234131 21.90417236 -2.11968262 21.18334473 -2.11694336 20.44067383 C-1.98976127 5.96928381 -1.98976127 5.96928381 0 0 Z " fill="#FCFCFC" transform="translate(65,156)"/>
<path d="M0 0 C14.74288438 6.6661797 25.3623488 18.69597664 31.64453125 33.4375 C33.71862854 39.48342305 35.59733116 45.77713942 33.16796875 51.97265625 C31.3259505 54.55982752 30.05698791 55.33736239 27.16796875 56.97265625 C23.98046875 57.09765625 23.98046875 57.09765625 21.16796875 55.97265625 C18.85167764 52.62062521 17.16713835 48.96753141 15.41577148 45.30053711 C12.01169258 38.21169062 8.48632666 31.83992725 3.16796875 25.97265625 C2.6265625 25.36292969 2.08515625 24.75320312 1.52734375 24.125 C-2.41075137 19.93847365 -6.78754042 16.77800044 -11.59765625 13.6484375 C-13.9022744 11.91997389 -15.36107541 10.445012 -16.83203125 7.97265625 C-16.76763257 4.30193159 -16.55867829 1.94151897 -14.33203125 -1.02734375 C-9.34700623 -3.02135376 -4.91979134 -1.78469672 0 0 Z " fill="#FBFBFB" transform="translate(179.83203125,36.02734375)"/>
<path d="M0 0 C0.57458573 5.83449017 1.14407887 11.66944741 1.70898438 17.50488281 C1.90161619 19.48743912 2.09560683 21.46986391 2.29101562 23.45214844 C2.57264104 26.31150849 2.84927734 29.17131545 3.125 32.03125 C3.21249512 32.90865845 3.29999023 33.78606689 3.39013672 34.69006348 C4.70084153 48.44257438 4.70084153 48.44257438 2.875 52.5 C1 54 1 54 -2 54.5 C-5 54 -5 54 -6.67195129 52.27252197 C-8.22408347 49.61655426 -8.33713608 48.1919737 -8.2487793 45.13964844 C-8.22853195 44.17895447 -8.20828461 43.2182605 -8.18742371 42.22845459 C-8.15006607 41.19915833 -8.11270844 40.16986206 -8.07421875 39.109375 C-8.04777786 38.04962463 -8.02133698 36.98987427 -7.99409485 35.89801025 C-7.90635743 32.51476554 -7.79719677 29.13259701 -7.6875 25.75 C-7.62423873 23.45576767 -7.56237276 21.16149642 -7.50195312 18.8671875 C-7.35082065 13.24423973 -7.18209705 7.62202556 -7 2 C-4.35261084 0.5393715 -3.10551666 0 0 0 Z " fill="#F9F9F9" transform="translate(188,154)"/>
</svg>
