<?xml version="1.0" encoding="UTF-8"?>
<svg version="1.1" xmlns="http://www.w3.org/2000/svg" width="245" height="422">
<path d="M0 0 C27.04586487 23.70269546 41.93998374 58.3088585 44.65820312 93.76831055 C46.43736445 122.69938796 39.88127103 151.87264987 26.16552734 177.36132812 C24.89292753 179.72632719 23.64473929 182.1035639 22.39453125 184.48046875 C16.9406109 194.73181903 11.07873724 204.32260992 4 213.52734375 C3.33484375 214.39230469 2.6696875 215.25726563 1.984375 216.1484375 C0.0241183 218.63860099 -1.98242005 221.08337718 -4 223.52734375 C-4.78213867 224.47843018 -5.56427734 225.4295166 -6.37011719 226.40942383 C-12.98345848 234.37813301 -19.96708369 241.85687431 -27.3125 249.15234375 C-27.85836761 249.69672089 -28.40423523 250.24109802 -28.96664429 250.80197144 C-36.87292103 258.66954642 -44.8149972 266.15117406 -54 272.52734375 C-54.84087158 273.11950684 -54.84087158 273.11950684 -55.69873047 273.72363281 C-65.39142692 280.52734375 -65.39142692 280.52734375 -68 280.52734375 C-66.81523763 282.92456423 -65.62749437 285.3202206 -64.4375 287.71484375 C-64.08051025 288.43575195 -63.72352051 289.15666016 -63.35571289 289.89941406 C-61.59871979 293.42348678 -59.81130314 296.9144266 -57.875 300.34375 C-57.235625 301.47683594 -56.59625 302.60992187 -55.9375 303.77734375 C-55.34839844 304.793125 -54.75929687 305.80890625 -54.15234375 306.85546875 C-53 309.52734375 -53 309.52734375 -53.17578125 311.78125 C-54.46214826 314.50639717 -56.33164942 315.25381279 -59 316.52734375 C-60.66072691 316.88911028 -62.32707315 317.22700286 -64 317.52734375 C-63.855625 318.13320313 -63.71125 318.7390625 -63.5625 319.36328125 C-60.19345323 334.57078403 -63.14498419 348.14929393 -69.828125 362.03125 C-73.53992521 369.93738444 -74.28717541 376.70600487 -73.91015625 385.42578125 C-73.99899077 388.49250337 -74.21713738 390.05831361 -76 392.52734375 C-78.9375 393.46484375 -78.9375 393.46484375 -82 393.52734375 C-84.59230504 391.73954717 -84.98667605 390.5673156 -86 387.52734375 C-87.15847647 373.43571193 -82.9147101 362.11433007 -77.26953125 349.5234375 C-75.40626846 345.12613731 -74.8769128 341.66773671 -74.90234375 336.88671875 C-74.90556641 335.81679688 -74.90878906 334.746875 -74.91210938 333.64453125 C-74.92048828 332.53335937 -74.92886719 331.4221875 -74.9375 330.27734375 C-74.94201172 329.15070313 -74.94652344 328.0240625 -74.95117188 326.86328125 C-74.96294603 324.08458158 -74.9793916 321.30598966 -75 318.52734375 C-75.96679688 318.57375 -76.93359375 318.62015625 -77.9296875 318.66796875 C-93.6440678 319.10361494 -93.6440678 319.10361494 -100 314.52734375 C-101.12625402 311.90112414 -101.08848207 310.77561374 -100.11962891 308.05712891 C-99.65991699 307.15269043 -99.20020508 306.24825195 -98.7265625 305.31640625 C-98.2315625 304.31867188 -97.7365625 303.3209375 -97.2265625 302.29296875 C-96.69804688 301.2565625 -96.16953125 300.22015625 -95.625 299.15234375 C-94.5892357 297.10645289 -93.56034903 295.05706258 -92.5390625 293.00390625 C-92.07709473 292.09721191 -91.61512695 291.19051758 -91.13916016 290.25634766 C-89.92104502 287.33819699 -89.4016474 284.6549071 -89 281.52734375 C-90.07636719 280.78871094 -91.15273437 280.05007813 -92.26171875 279.2890625 C-106.09949461 269.7175225 -118.31263043 259.37985699 -130.25 247.52734375 C-131.17321045 246.61355957 -132.0964209 245.69977539 -133.04760742 244.75830078 C-139.12190661 238.65508415 -144.6676391 232.28534721 -150 225.52734375 C-150.73114014 224.6156543 -150.73114014 224.6156543 -151.47705078 223.68554688 C-174.6554732 194.68280293 -194.00956055 160.73606027 -199 123.52734375 C-199.19529297 122.22023437 -199.19529297 122.22023437 -199.39453125 120.88671875 C-203.94846611 85.18386942 -193.63312254 47.9094347 -172.27685547 19.16357422 C-168.50590578 14.33127885 -164.24708677 9.93752909 -160 5.52734375 C-159.41863281 4.8828125 -158.83726562 4.23828125 -158.23828125 3.57421875 C-116.55896938 -41.35964896 -44.49510255 -36.6736978 0 0 Z " fill="#000000" transform="translate(200,28.47265625)"/>
<path d="M0 0 C3.22253517 1.55555033 3.89879716 3.89911395 5.40698242 7.09130859 C5.70465012 7.71451996 6.00231781 8.33773132 6.30900574 8.97982788 C9.6828129 16.11638824 12.80080498 23.36949941 15.89526367 30.63037109 C16.75376176 32.63554799 17.61345311 34.64020428 18.47428894 36.64437866 C19.24288869 38.43514632 20.00826825 40.2272951 20.7734375 42.01953125 C21.20551514 43.0048584 21.63759277 43.99018555 22.08276367 45.00537109 C22.36990234 45.7754248 22.65704102 46.54547852 22.95288086 47.33886719 C23.97698738 49.20210598 23.97698738 49.20210598 26.19775391 49.76318359 C27.56202515 49.94494141 27.56202515 49.94494141 28.95385742 50.13037109 C30.0326416 50.27732422 31.11142578 50.42427734 32.22290039 50.57568359 C41.09079259 51.56287463 49.96822264 52.43506273 58.85302734 53.25537109 C61.46291687 53.49804129 64.07164686 53.7510182 66.68041992 54.00537109 C67.88034325 54.11171875 67.88034325 54.11171875 69.10450745 54.22021484 C72.81426576 54.58764779 74.92559569 54.90059244 78.08276367 57.00537109 C77.83045414 61.44927454 76.01829574 63.43250089 72.78051758 66.35449219 C72.19963379 66.85803223 71.61875 67.36157227 71.02026367 67.88037109 C70.42391113 68.41355957 69.82755859 68.94674805 69.21313477 69.49609375 C67.51325242 71.01135678 65.80136215 72.5114016 64.08276367 74.00537109 C63.38538086 74.61380859 62.68799805 75.22224609 61.96948242 75.84912109 C60.7809436 76.8821748 59.59080018 77.91338491 58.39916992 78.94287109 C52.182038 84.47852987 45.96992919 90.11820558 40.08276367 96.00537109 C39.75319388 101.70496239 40.67573402 106.88033673 41.83276367 112.44677734 C42.01033203 113.33268051 42.18790039 114.21858368 42.37084961 115.1313324 C42.93513459 117.94483909 43.50799845 120.75648804 44.08276367 123.56787109 C44.6571875 126.38288517 45.22950921 129.19823374 45.79467773 132.01512146 C46.14530487 133.76253994 46.50116882 135.50891834 46.86303711 137.25404358 C47.73135725 141.57923769 48.28353979 145.56633651 48.08276367 150.00537109 C44.80347206 151.11258579 43.4501121 151.1758167 40.26245117 149.69677734 C39.1719043 148.99423828 38.08135742 148.29169922 36.95776367 147.56787109 C35.64609918 146.74752325 34.33351657 145.92864246 33.02026367 145.11083984 C32.26487305 144.63437012 31.50948242 144.15790039 30.73120117 143.66699219 C25.77933144 140.56020519 20.79480457 137.50957418 15.78887939 134.49093628 C13.97301688 133.38962211 12.16850744 132.27112911 10.36352539 131.15209961 C8.67380615 130.13200806 8.67380615 130.13200806 6.94995117 129.09130859 C5.9404541 128.47304199 4.93095703 127.85477539 3.89086914 127.21777344 C0.65534335 125.82083194 -0.6289537 125.87690086 -3.91723633 127.00537109 C-6.37807472 128.31898589 -8.73167154 129.67381413 -11.10473633 131.13037109 C-12.60170481 132.02431628 -14.09913335 132.91749134 -15.59692383 133.81005859 C-18.46287772 135.52918642 -21.32636657 137.25226635 -24.18774414 138.97900391 C-27.1072917 140.73820623 -30.03712535 142.47931465 -32.9725647 144.21185303 C-34.14283671 144.90683351 -35.3095218 145.60789025 -36.47250366 146.31500244 C-38.11838724 147.31508133 -39.77737035 148.29350372 -41.43676758 149.27099609 C-42.39687744 149.84624023 -43.3569873 150.42148438 -44.34619141 151.01416016 C-46.91723633 152.00537109 -46.91723633 152.00537109 -49.07792664 151.06732178 C-49.68489883 150.71687805 -50.29187103 150.36643433 -50.91723633 150.00537109 C-50.32210752 143.90596207 -49.40054512 138.03813463 -48.06958008 132.06005859 C-47.70811698 130.38951488 -47.34679297 128.71894106 -46.9855957 127.04833984 C-46.41965471 124.45647275 -45.85138048 121.86514784 -45.28027344 119.27441406 C-44.72467633 116.74593388 -44.17794569 114.21565473 -43.63208008 111.68505859 C-43.4602269 110.91821747 -43.28837372 110.15137634 -43.11131287 109.36129761 C-42.14259369 104.84781906 -41.56134468 100.65015744 -41.91723633 96.00537109 C-44.00806777 93.33496827 -44.00806777 93.33496827 -46.91723633 91.00537109 C-47.94386932 89.98641199 -48.96041903 88.95721879 -49.96801758 87.91943359 C-56.81708355 80.95090101 -56.81708355 80.95090101 -64.04223633 74.38037109 C-67.45043229 71.45591907 -70.74192808 68.42882682 -73.97973633 65.31787109 C-74.4819873 64.85364746 -74.98423828 64.38942383 -75.50170898 63.91113281 C-76.88989258 62.55615234 -76.88989258 62.55615234 -78.91723633 60.00537109 C-78.78543355 57.68484342 -78.55615057 56.64428533 -76.91723633 55.00537109 C-75.43868328 54.77123536 -73.95052964 54.59723611 -72.4609375 54.44873047 C-71.5129277 54.35192993 -70.56491791 54.25512939 -69.58818054 54.15539551 C-68.55594864 54.05432495 -67.52371674 53.95325439 -66.46020508 53.84912109 C-64.87844231 53.68833069 -64.87844231 53.68833069 -63.26472473 53.52429199 C-59.87846915 53.18046745 -56.49166878 52.84245802 -53.10473633 52.50537109 C-49.72857239 52.16777871 -46.35255907 51.82888728 -42.97688293 51.4864502 C-40.87259695 51.27312454 -38.768018 51.06266541 -36.66313171 50.85534668 C-35.2269323 50.71014587 -35.2269323 50.71014587 -33.76171875 50.56201172 C-32.92090256 50.47842407 -32.08008636 50.39483643 -31.21379089 50.30871582 C-29.01774287 50.01864669 -27.01190963 49.73096406 -24.91723633 49.00537109 C-23.2754827 46.447659 -23.2754827 46.447659 -21.96411133 43.19677734 C-21.70259781 42.60249939 -21.44108429 42.00822144 -21.17164612 41.39593506 C-20.32299376 39.45895276 -19.49530191 37.51373135 -18.66723633 35.56787109 C-18.08954172 34.24129423 -17.51035408 32.91536656 -16.9296875 31.59008789 C-15.77825187 28.95642648 -14.63453438 26.31966078 -13.4987793 23.67919922 C-11.76613142 19.65436358 -10.01640982 15.63754261 -8.24829102 11.62817383 C-7.58558875 10.12502148 -6.92838408 8.6194293 -6.27758789 7.11108398 C-3.16901295 0.00887792 -3.16901295 0.00887792 0 0 Z " fill="#FDFDFD" transform="translate(122.917236328125,65.99462890625)"/>
<path d="M0 0 C10.13752465 1.6506146 17.8806162 8.39493883 24.87890625 15.46875 C25.430625 15.98695312 25.98234375 16.50515625 26.55078125 17.0390625 C34.56678601 25.27055126 40.30211457 38.47420074 40.15234375 49.796875 C39.87890625 52.46875 39.87890625 52.46875 38.31640625 55.59375 C35.07930045 58.08383138 32.94890857 58.54142861 28.87890625 58.46875 C25.10165744 55.52928487 23.75863969 52.24258159 22.06640625 47.84375 C16.27004296 33.66303349 5.74878691 21.41840877 -7.4765625 13.5546875 C-9.12109375 12.46875 -9.12109375 12.46875 -10.12109375 10.46875 C-10.58427801 4.09996641 -10.58427801 4.09996641 -8.8828125 1.78125 C-6.00175889 -0.36516688 -3.49804669 -0.1222025 0 0 Z " fill="#FCFCFC" transform="translate(174.12109375,34.53125)"/>
</svg>
