<?xml version="1.0" encoding="UTF-8"?>
<svg version="1.1" xmlns="http://www.w3.org/2000/svg" width="243" height="423">
<path d="M0 0 C4.31792723 3.53895436 8.45662394 7.2219985 12.51171875 11.05859375 C13.33542969 11.81785156 14.15914062 12.57710937 15.0078125 13.359375 C37.76537611 35.05184203 52.29582271 68.649347 53.63818359 100.01342773 C53.98675221 114.94304336 53.81471552 129.4558712 50.51171875 144.05859375 C50.35074707 144.78626953 50.18977539 145.51394531 50.02392578 146.26367188 C41.24074922 184.56878388 17.54028364 219.36106916 -9.10546875 247.57421875 C-11.15678245 249.77619391 -13.12971385 252.04565066 -15.11328125 254.30859375 C-19.58485933 259.28502742 -24.42836044 263.69031679 -29.48828125 268.05859375 C-30.48729561 268.94365336 -31.48598112 269.82908427 -32.484375 270.71484375 C-40.34466258 277.6061214 -48.68004102 283.4422746 -57.48828125 289.05859375 C-56.23212682 293.29734147 -54.66289094 296.60090637 -52.17578125 300.24609375 C-43.22636592 313.9985496 -43.22636592 313.9985496 -43.72265625 319.796875 C-44.48828125 322.05859375 -44.48828125 322.05859375 -46.73828125 323.37109375 C-49.45071363 324.04920185 -51.70627158 324.21756573 -54.48828125 324.05859375 C-54.16601562 324.85136719 -53.84375 325.64414062 -53.51171875 326.4609375 C-49.13254621 341.85489897 -53.50453389 357.5374765 -60.33984375 371.42578125 C-63.25216592 378.10232935 -63.82827356 384.21748265 -63.96679688 391.36132812 C-64.12910443 395.52194364 -64.54741735 398.0236222 -67.48828125 401.05859375 C-70.36328125 400.80859375 -70.36328125 400.80859375 -73.48828125 400.05859375 C-76.88098024 396.01966638 -76.59685288 389.3505961 -76.17578125 384.33984375 C-74.70085568 376.2277531 -72.58483534 369.08470404 -69.00195312 361.63867188 C-64.95570011 353.20086197 -64.20518842 345.82526588 -64.36328125 336.55859375 C-64.37230469 335.54539062 -64.38132812 334.5321875 -64.390625 333.48828125 C-64.41399118 331.01146574 -64.44674957 328.53515996 -64.48828125 326.05859375 C-65.53886719 326.105 -66.58945313 326.15140625 -67.671875 326.19921875 C-84.34884672 326.71745778 -84.34884672 326.71745778 -89.48828125 322.05859375 C-90.91003556 317.74960623 -90.14737734 315.49609936 -88.1796875 311.49609375 C-87.68017578 310.45195312 -87.18066406 309.4078125 -86.66601562 308.33203125 C-86.13298828 307.25179688 -85.59996094 306.1715625 -85.05078125 305.05859375 C-84.00170896 302.91700404 -82.96098896 300.77129757 -81.9296875 298.62109375 C-81.46248291 297.67363281 -80.99527832 296.72617187 -80.51391602 295.75 C-79.44086846 292.93417608 -79.12812681 291.04125395 -79.48828125 288.05859375 C-81.42737438 286.29325976 -81.42737438 286.29325976 -84.11328125 284.93359375 C-96.49219868 277.58559532 -107.14740337 268.00390092 -117.48828125 258.05859375 C-117.9795752 257.58921387 -118.47086914 257.11983398 -118.97705078 256.63623047 C-124.83644283 251.01318365 -130.22282785 245.18590825 -135.26953125 238.82421875 C-136.70839257 237.03070851 -138.1860872 235.2674194 -139.70703125 233.54296875 C-161.47832626 208.72369244 -178.38753841 178.08707822 -186.48828125 146.05859375 C-186.66762207 145.36459473 -186.84696289 144.6705957 -187.03173828 143.95556641 C-195.56906732 109.18735748 -189.02974106 68.31209713 -170.62939453 37.86474609 C-165.1531668 29.19698128 -158.51125854 21.50103215 -151.48828125 14.05859375 C-150.38613281 12.84236328 -150.38613281 12.84236328 -149.26171875 11.6015625 C-111.44372735 -28.55633807 -43.58913398 -33.42485162 0 0 Z " fill="#000000" transform="translate(189.48828125,21.94140625)"/>
<path d="M0 0 C4.07124166 2.3338328 6.35820885 5.6097828 7.83984375 10.0546875 C10.48421225 39.1326991 4.87969919 69.67542203 0.21484375 98.3046875 C0.02124268 99.49811768 -0.1723584 100.69154785 -0.37182617 101.92114258 C-1.41265232 107.93592947 -2.59050143 113.497972 -5.16015625 119.0546875 C-8.31109758 121.15531505 -9.38259285 121.39782036 -13.03515625 121.4921875 C-14.29972656 121.55212891 -14.29972656 121.55212891 -15.58984375 121.61328125 C-19.54252712 120.75426344 -20.76794824 119.32297169 -23.16015625 116.0546875 C-24.41333916 112.28926079 -25.0321224 108.46696394 -25.66015625 104.5546875 C-25.8610083 103.38631348 -26.06186035 102.21793945 -26.26879883 101.01416016 C-30.3603771 76.55353439 -33.89888855 51.83573129 -35.16015625 27.0546875 C-35.20011719 26.27432129 -35.24007812 25.49395508 -35.28125 24.68994141 C-35.91336962 10.38823506 -35.91336962 10.38823506 -32.16015625 4.0546875 C-23.21327957 -3.34512509 -10.7166609 -4.19087298 0 0 Z " fill="#FDFDFD" transform="translate(135.16015625,54.9453125)"/>
<path d="M0 0 C13.10976888 2.1345621 23.28360396 12.70488455 31.0546875 22.77734375 C36.16355243 30.31483398 40.00341241 37.79684644 40.06640625 46.96875 C40.08058594 47.9071875 40.09476563 48.845625 40.109375 49.8125 C39.86809098 52.59340054 39.40868742 54.15120777 37.87890625 56.46875 C34.18404522 58.93199069 32.24597533 58.85866688 27.87890625 58.46875 C24.54851252 56.08028581 23.5810103 52.62216794 22.12890625 48.90625 C19.47829044 42.43818026 16.25538739 36.95568157 11.87890625 31.46875 C11.28464844 30.71078125 10.69039062 29.9528125 10.078125 29.171875 C5.48542751 23.65683453 0.21586407 19.47768048 -5.58203125 15.31640625 C-8.12109375 13.46875 -8.12109375 13.46875 -10.12109375 11.46875 C-10.69319054 4.26033046 -10.69319054 4.26033046 -8.87890625 1.75 C-5.9911975 -0.35481882 -3.48183351 -0.12163611 0 0 Z " fill="#FCFCFC" transform="translate(173.12109375,35.53125)"/>
<path d="M0 0 C4.40296254 3.78859567 8.34605798 7.49754204 8.890625 13.58203125 C9.01856542 20.52279888 7.98703586 24.56583217 3.4375 30 C-1.31817276 33.99908846 -6.13938331 35.93565123 -12.33203125 35.66015625 C-18.70372916 34.54165307 -22.69105225 30.38252685 -26.3125 25.3125 C-28.60401523 21.16594863 -28.99902655 16.96371739 -28.3125 12.3125 C-26.0725483 5.41446691 -22.17289502 1.67163029 -16.0625 -2.0625 C-10.41719311 -3.34552429 -5.1317352 -2.6142802 0 0 Z " fill="#FCFCFC" transform="translate(131.3125,196.6875)"/>
</svg>
